<svg xmlns="http://www.w3.org/2000/svg" viewBox="0 0 569.28 111.15"><g id="Layer_2" data-name="Layer 2"><g id="Layer_1-2" data-name="Layer 1"><path d="M9.12,50.54Q7.41,58,6.55,62.79a47.92,47.92,0,0,0-.85,7.7,7.57,7.57,0,0,0,.76,4,2.37,2.37,0,0,0,2.09,1.14,9.19,9.19,0,0,0,4-1.14c1.52-.76,3.17-1.62,4.94-2.56a37.7,37.7,0,0,1,5.7-2.48,18.77,18.77,0,0,1,6.08-1,7.36,7.36,0,0,1,4.18,1A8.76,8.76,0,0,1,35.91,72a1,1,0,0,1-.09,1.23,1.69,1.69,0,0,1-1.24.48,1.64,1.64,0,0,1-1.14-.57,4.55,4.55,0,0,0-4-1.9,14.83,14.83,0,0,0-5.79,1.33,69.37,69.37,0,0,0-6.28,3c-2.09,1.14-4.11,2.15-6.08,3A13,13,0,0,1,6.08,80a4.93,4.93,0,0,1-4.66-2.57A14.31,14.31,0,0,1,0,70.49,72.77,72.77,0,0,1,2.18,54.62q2.19-9.4,5.32-19.28t6.56-19Q17.48,7.22,20,1.14A2,2,0,0,1,21.85,0a2.17,2.17,0,0,1,1.61.67,1.37,1.37,0,0,1,.29,1.61C23.11,3.93,22.2,6.49,21,10s-2.51,7.48-3.9,12-2.79,9.25-4.18,14.25S10.26,46,9.12,50.54Z"/><path d="M79.61,46.74a40.81,40.81,0,0,0-4,4.75q-2.1,2.85-4.18,6c-1.4,2.09-2.69,4.18-3.9,6.27l-3.32,5.8c.38.38.38.88,0,1.52a2.06,2.06,0,0,1-1.52.57A3.52,3.52,0,0,1,60.61,71a2.45,2.45,0,0,1-1-2.18,42.71,42.71,0,0,1,1.71-11.31q1.71-6.16,3.23-10.73c-1.27,2-2.69,4.27-4.28,6.74s-3.2,4.79-4.84,6.94a46.48,46.48,0,0,1-4.75,5.41Q48.45,68,46.74,68a3.49,3.49,0,0,1-2.85-1.14A6.5,6.5,0,0,1,42.56,64a14.36,14.36,0,0,1-.29-3.8c.07-1.39.16-2.72.29-4a27.49,27.49,0,0,1-3.42,4.37q-2.28,2.47-4.37,2.47a3.21,3.21,0,0,1-2.66-1.71,10,10,0,0,1-.95-5.61,32.69,32.69,0,0,1,1.23-7.31,21.83,21.83,0,0,1,3-6.37c1.26-1.83,2.66-2.75,4.18-2.75a3.2,3.2,0,0,1,3,1.9,15.23,15.23,0,0,1,1.33,4.56C44.52,44.27,45,43,45.41,42a7.89,7.89,0,0,1,.76-1.71,1.75,1.75,0,0,1,1.9-1.14,2.71,2.71,0,0,1,1.8.76,1.43,1.43,0,0,1,.48,1.71,32.12,32.12,0,0,0-1,3.61q-.76,3.24-1.52,7.12c-.51,2.6-.89,5.11-1.14,7.51S46.61,64,47.12,65q1.71-.75,4.56-4.94c1.9-2.79,3.89-5.82,6-9.12s4.12-6.4,6.08-9.31a25.77,25.77,0,0,1,4.47-5.51,2.71,2.71,0,0,1,1.52-.38,2.61,2.61,0,0,1,1.9.76,1.74,1.74,0,0,1,.38,1.9,14.7,14.7,0,0,1-.86,3q-.86,2.47-1.9,5.79t-2.18,7c-.76,2.47-1.4,4.79-1.9,6.94.63-1,1.68-2.63,3.13-4.85s3-4.46,4.75-6.74a56.57,56.57,0,0,1,5.23-6.08q2.66-2.65,4.37-2.66a2,2,0,0,1,2.09,1.8A16.26,16.26,0,0,1,84.93,47q-.2,2.56-.67,5.7a54.31,54.31,0,0,0-.57,5.7,11.57,11.57,0,0,0,.57,4.37A2.65,2.65,0,0,0,87,64.6a11,11,0,0,0,5.79-2A46,46,0,0,0,99,57.85q3-2.74,5.7-5.6c1.77-1.9,3.1-3.35,4-4.37a1.82,1.82,0,0,1,1.33-.57,1.65,1.65,0,0,1,1.33.47,1.11,1.11,0,0,1,0,1.24q-2.67,3.24-5.89,6.65A83.51,83.51,0,0,1,99,61.84a46,46,0,0,1-6.27,4.56,10.77,10.77,0,0,1-5.32,1.81q-3.81,0-5.7-2a9.75,9.75,0,0,1-2.47-5.13,27.31,27.31,0,0,1-.29-6.93Q79.22,50.36,79.61,46.74ZM39.9,42a14.82,14.82,0,0,0-1.71,3,28.74,28.74,0,0,0-1.62,4.65,48.37,48.37,0,0,0-1,5.23,20.12,20.12,0,0,0-.19,4.75,42.73,42.73,0,0,0,6.27-9.5c-.13-1-.35-2.38-.67-4.09A24.25,24.25,0,0,0,39.9,42Z"/><path d="M125,42.94c.63.64,1,2.12,1.14,4.46s.12,4.85,0,7.51-.32,5.26-.57,7.79S125.14,67,125,68c3.42.51,5.79,1.61,7.12,3.32a19.58,19.58,0,0,1,2.38,3.52c.25.88-.07,1.33-1,1.33a1.66,1.66,0,0,1-1.33-.76c-.51-.64-1.27-1.52-2.28-2.66s-2.85-1.84-5.51-2.09a98,98,0,0,1-3.14,12.73,74.22,74.22,0,0,1-5.51,13.2A40,40,0,0,1,108,107a14.47,14.47,0,0,1-10.16,4.18,7.83,7.83,0,0,1-6.27-2.66,10.45,10.45,0,0,1-2.28-7,24,24,0,0,1,2.94-10.74A44.71,44.71,0,0,1,99.94,80a50.38,50.38,0,0,1,10.45-8.36,24.91,24.91,0,0,1,11-3.8,57.22,57.22,0,0,0,1.23-9.5,48.38,48.38,0,0,0-.28-9.31q-.77,1.53-2.28,4a58.67,58.67,0,0,1-3.33,4.84,39.05,39.05,0,0,1-3.51,4.09A4.8,4.8,0,0,1,110,63.65q-3.62,0-3.61-4.75a21.81,21.81,0,0,1,1-6.27A38.17,38.17,0,0,1,110,46.26a19.65,19.65,0,0,1,3.51-4.94,5.67,5.67,0,0,1,3.9-2c1.77,0,3,.54,3.61,1.61a8.68,8.68,0,0,1,1.14,2.76,3.1,3.1,0,0,1,1.9-1.14A1.31,1.31,0,0,1,125,42.94Zm-4.18,27.93a26.29,26.29,0,0,0-9.79,4.46,56.1,56.1,0,0,0-9.21,8.08A44.74,44.74,0,0,0,95,93.1a20.21,20.21,0,0,0-2.66,9.12,7.21,7.21,0,0,0,1.33,4.56,4.32,4.32,0,0,0,3.61,1.71q4.36,0,8.26-4.28a48.54,48.54,0,0,0,7-10.26A81.52,81.52,0,0,0,117.8,81.6Q119.89,75.24,120.84,70.87Zm-3-28.12c-.38,0-1,.57-1.9,1.71a27.14,27.14,0,0,0-2.66,4.27,32.16,32.16,0,0,0-2.28,5.8A22.61,22.61,0,0,0,110,61a9.07,9.07,0,0,0,2.18-2.09c.82-1,1.68-2.15,2.57-3.42s1.74-2.59,2.56-4,1.55-2.59,2.19-3.61c-.13-.63-.32-1.64-.57-3S118.3,42.75,117.8,42.75Z"/><path d="M156.18,46.93a1.54,1.54,0,0,1,.95-.57,1.36,1.36,0,0,1,1.33.85,1.52,1.52,0,0,1-.19,1.62,25.24,25.24,0,0,1-4.37,4.75,43.44,43.44,0,0,1-6.65,4.56,5.77,5.77,0,0,1,1.52,3.42,8.47,8.47,0,0,1-1.05,4.94,12.34,12.34,0,0,1-3.23,3.61,14.59,14.59,0,0,1-4.37,2.28,15.38,15.38,0,0,1-4.65.76,9.34,9.34,0,0,1-3.8-.76,4,4,0,0,1-2.28-2.47,3.87,3.87,0,0,1,.47-3.8,16,16,0,0,1,3.42-3.33,33.57,33.57,0,0,1,4.85-2.94c1.77-.88,3.35-1.71,4.75-2.47-1-.63-2.09-1.26-3.23-1.9a28.69,28.69,0,0,1-3.14-2,11.22,11.22,0,0,1-2.37-2.28,3.56,3.56,0,0,1-.76-2.75,6.31,6.31,0,0,1,1.23-3.23,25.38,25.38,0,0,1,2.85-3.61,19.58,19.58,0,0,1,3.33-2.85,5.53,5.53,0,0,1,2.47-1.14,2.07,2.07,0,0,1,1.14.38.78.78,0,0,1,.38,1A4.82,4.82,0,0,1,143.64,41c-.76,1-1.62,2.06-2.57,3.13s-1.84,2.07-2.66,2.95-1.36,1.46-1.61,1.71q.38,1.91,3.13,3.51a37.85,37.85,0,0,1,5.23,3.71,65.39,65.39,0,0,0,5.7-3.71A22.8,22.8,0,0,0,156.18,46.93Zm-11,12.35q-2.1,1.14-4.66,2.37t-4.65,2.47a19.8,19.8,0,0,0-3.33,2.38,2.12,2.12,0,0,0-.85,2.28c.12.64,1,1,2.47,1a13,13,0,0,0,3.51-.57,16.54,16.54,0,0,0,3.8-1.62,10.68,10.68,0,0,0,3-2.56,6.35,6.35,0,0,0,1.43-3.42A3.6,3.6,0,0,0,145.16,59.28Z"/><path d="M203.67,64.6q.2-1.51.57-3.42c.26-1.26.57-2.66.95-4.18.26-1.14.54-2.31.86-3.52s.6-2.37.85-3.51h-.38a2.58,2.58,0,0,1-1.14.19c-1.39,0-2.06-.67-2-2a2.34,2.34,0,0,1,2.18-2.38l2.66-.38q2.47-8.55,5.51-16.44t6.08-14a48.62,48.62,0,0,0-8.55,3.61A47.29,47.29,0,0,0,204.62,23a23.93,23.93,0,0,0-4.37,4.37A8.38,8.38,0,0,0,198.54,31c0,.38.32.63,1,.76a1.8,1.8,0,0,1,1.52,1.9c0,1-.5,1.39-1.52,1.14q-4-.37-3.61-4.56a11.82,11.82,0,0,1,2.66-5.89,27.8,27.8,0,0,1,5.8-5.32,45.88,45.88,0,0,1,8.07-4.47,71.7,71.7,0,0,1,9.31-3.32l1.14-1.9a3,3,0,0,1,2.66-1.14c1.4,0,1.84.64,1.33,1.9a43.63,43.63,0,0,1,8.55-.76h2a10.66,10.66,0,0,1,2,.19q9.51,1.14,12.92,5.7a10.22,10.22,0,0,1,1.33,10.26q-2.08,5.7-9.31,11.3T225.52,45.6c2.79.64,5.61,1.42,8.46,2.37a28.54,28.54,0,0,1,7.5,3.71q5.52,3.81,6.08,7.79a10.75,10.75,0,0,1-2.18,7.88,28.37,28.37,0,0,1-8.17,7.32,71.69,71.69,0,0,1-11.88,6,89.12,89.12,0,0,1-13.2,4.09,55.77,55.77,0,0,1-12.07,1.52,19,19,0,0,1-8.93-1.81,5.6,5.6,0,0,1-3-6q.39-4.38,4.94-7.79A53.62,53.62,0,0,1,203.67,64.6Zm3.8,8.74c0,.25-.22.57-.66,1a2.41,2.41,0,0,1-1.62.57c-.63,0-1.17-.41-1.61-1.24s-.6-2.37-.48-4.65a50.07,50.07,0,0,0-7.69,4.27q-3.14,2.19-3.33,3.9-.18,3.23,6.84,3.23a51.35,51.35,0,0,0,9.88-1.14,101.39,101.39,0,0,0,11.5-3,81,81,0,0,0,10.92-4.47,34.31,34.31,0,0,0,8.17-5.41q3-2.85,3.23-5.89c.13-2-1.2-4-4-5.89a33.82,33.82,0,0,0-10.16-4,54.36,54.36,0,0,0-13.4-1.71h-1.9a10.29,10.29,0,0,0-1.9.19c-.38,1.4-.79,2.79-1.23,4.18a34.08,34.08,0,0,0-1,4.18c-.12.51-.35,1.27-.66,2.28a31.73,31.73,0,0,0-.86,3.61,51.73,51.73,0,0,1,15.58-2.66,20.67,20.67,0,0,1,6.37.85,5.53,5.53,0,0,1,3.51,2.95q1,2.28-1.14,2.28a4.14,4.14,0,0,1-1.9-1c-.5-.38-1-.73-1.42-1a8.1,8.1,0,0,0-2.76-.85,51.61,51.61,0,0,0-19.19,3.61,30.76,30.76,0,0,0-.57,4.94C207,72.39,207.47,72.7,207.47,73.34ZM213,44.27a88,88,0,0,0,21.19-7.79q9.21-4.93,13.49-9.88t2.66-8.84Q248.7,13.88,239,12.92a13.49,13.49,0,0,0-2.28-.19h-2.28a40,40,0,0,0-4.94.28c-1.52.19-3,.42-4.37.67q-2.85,6.09-6.08,14.06T213,44.27Z"/><path d="M257.25,63.27q-5.13,0-6-3.71a15.29,15.29,0,0,1,.57-8.16,24.67,24.67,0,0,1,4.46-8.18q3-3.7,5.89-3.7A3.62,3.62,0,0,1,265,40.85a5.08,5.08,0,0,1,1.14,3.42,7.2,7.2,0,0,1-3.13,6.46,10.49,10.49,0,0,1-5.61,2.09,4.69,4.69,0,0,1-1.71-.19A13.13,13.13,0,0,0,255,58a2.55,2.55,0,0,0,2.85,2.66,12.33,12.33,0,0,0,5.23-1.43,34.21,34.21,0,0,0,5.7-3.51A57.2,57.2,0,0,0,274,51.2a38.85,38.85,0,0,0,3.8-4.08,1.55,1.55,0,0,1,1.14-.76,1.36,1.36,0,0,1,1.33.76,1.35,1.35,0,0,1-.19,1.52,45.91,45.91,0,0,1-4.27,4.84,41.5,41.5,0,0,1-5.7,4.75,35.71,35.71,0,0,1-6.46,3.61A16.18,16.18,0,0,1,257.25,63.27Zm5.13-20.9a8.71,8.71,0,0,0-3,3,39.67,39.67,0,0,0-2.85,5.13h.19a4.49,4.49,0,0,0,2.66-.95,10.33,10.33,0,0,0,2.28-2.19,6.29,6.29,0,0,0,1.24-2.66A2.73,2.73,0,0,0,262.38,42.37Z"/><path d="M311,48.83l-4.94,6.84q-2.47,3.42-4.65,6.17a32.48,32.48,0,0,1-4.18,4.47A5.92,5.92,0,0,1,293.54,68a5.64,5.64,0,0,1-4.18-1.52,8.68,8.68,0,0,1-2.18-3.8,18.06,18.06,0,0,1-.67-5.13,35.5,35.5,0,0,1,.38-5.32,27.89,27.89,0,0,1-1.71,2.85,40,40,0,0,1-2.56,3.42,21.52,21.52,0,0,1-2.95,2.94,4.8,4.8,0,0,1-3,1.24q-2.85,0-2.85-3.23a19.54,19.54,0,0,1,1.14-6.08,37.13,37.13,0,0,1,2.85-6.46,25.87,25.87,0,0,1,3.71-5.13c1.33-1.39,2.56-2.09,3.7-2.09a2.63,2.63,0,0,1,2,.95,5.64,5.64,0,0,1,1.23,2.47,26.2,26.2,0,0,1,2.47-4.37,2,2,0,0,1,1.71-.76,3.23,3.23,0,0,1,1.71.47,1.58,1.58,0,0,1,.76,1.43,22,22,0,0,1-.47,2.56q-.48,2.19-1.14,5.13t-1.14,6.27a42.43,42.43,0,0,0-.48,6q0,4.56,1.71,4.56,1.14,0,2.85-1.71a56.72,56.72,0,0,0,3.8-4.28c1.39-1.71,2.82-3.57,4.28-5.6a57.09,57.09,0,0,1,4.46-5.51,1.66,1.66,0,0,1,1.33-.76,1.06,1.06,0,0,1,1.05.85A1.3,1.3,0,0,1,311,48.83ZM277.58,58.9a35.89,35.89,0,0,0,3.8-4.85q2.28-3.31,5.51-8.45a1.14,1.14,0,0,1-.76-.76,4.86,4.86,0,0,0-.19-1.52,7.18,7.18,0,0,0-.38-1A11.79,11.79,0,0,0,283.38,45q-1.25,1.9-2.47,4.18a29.56,29.56,0,0,0-2.09,4.84A31.77,31.77,0,0,0,277.58,58.9Z"/><path d="M341,36.29c-.13.89-.38,2.22-.76,4s-.79,3.68-1.23,5.7-.83,4.06-1.14,6.08-.61,3.74-.86,5.13c.76-1.26,1.58-2.63,2.47-4.09s1.84-2.85,2.85-4.18a45.58,45.58,0,0,1,2.95-3.51,5,5,0,0,1,2.75-1.71,4.47,4.47,0,0,1,4.56,3.42,32.2,32.2,0,0,1,.86,3.61c.31,1.65.69,3.32,1.14,5a21,21,0,0,0,1.71,4.56c.69,1.33,1.48,2,2.37,2a4.68,4.68,0,0,0,2.66-1.14,27.88,27.88,0,0,0,3.33-3q1.8-1.89,3.7-4.28T372,49.21c1-1.52,2-2.28,3-2.28a.88.88,0,0,1,.95.66,2.08,2.08,0,0,1-.38,1.62q-1.9,2.85-4.08,5.7A63.37,63.37,0,0,1,367.17,60a32.58,32.58,0,0,1-4.28,3.8,7.1,7.1,0,0,1-4.18,1.52,6.49,6.49,0,0,1-5.41-2.57,18.85,18.85,0,0,1-3-5.7,31.54,31.54,0,0,1-1.43-6.17,15.58,15.58,0,0,0-.76-3.8,44.24,44.24,0,0,0-5.89,7.5,58.78,58.78,0,0,0-6.46,14,1.65,1.65,0,0,1,.95,1.71c0,1-.57,1.52-1.71,1.52a2.4,2.4,0,0,1-1.71-.76,5.47,5.47,0,0,1-1.14-2.85,11.15,11.15,0,0,1,0-3c.13-1.52.32-3.33.57-5.42s.57-4.43.95-7,.82-5.22,1.33-7.88q-2.28,3.24-5,6.46t-5.51,5.89a29.22,29.22,0,0,1-5.51,4.27,10.68,10.68,0,0,1-5.42,1.62q-7,0-7-8.74a24.39,24.39,0,0,1,.86-6,28,28,0,0,1,2.37-6.17,19.17,19.17,0,0,1,3.61-4.85,6.47,6.47,0,0,1,4.56-2q2.47,0,3.52,3a13.91,13.91,0,0,1,.09,7.41c0,.38-.32.57-1,.57a2.42,2.42,0,0,1-1.23-.38c-.45-.25-.61-.57-.48-.95a5.65,5.65,0,0,0,.19-1.71V41a19.43,19.43,0,0,0-.09-2c-.07-.57-.23-.85-.48-.85-.51,0-1.17.64-2,1.9a27.2,27.2,0,0,0-2.38,4.75,44.41,44.41,0,0,0-1.9,6,24,24,0,0,0-.76,5.61c0,2.54.7,3.8,2.09,3.8s3.23-.76,5.13-2.28a54.2,54.2,0,0,0,6-5.7q3.13-3.42,6.27-7.51t5.79-7.88l1.14-4.37q1.14-4.74,2.57-9.41c.95-3.1,1.9-5.91,2.85-8.45A68.52,68.52,0,0,1,346,8.17a9.15,9.15,0,0,1,2.47-3.42,6.15,6.15,0,0,1,1.71-.38,2.91,2.91,0,0,1,2,.76,2.72,2.72,0,0,1,.66,2.47A37.48,37.48,0,0,1,351.21,13q-1.43,4.1-3.23,8.65t-3.52,8.45A19.79,19.79,0,0,1,342,34.77Z"/><path d="M421.22,64.6c.12-1,.32-2.15.57-3.42s.57-2.66.95-4.18c.25-1.14.54-2.31.85-3.52s.61-2.37.86-3.51h-.38a2.64,2.64,0,0,1-1.14.19c-1.39,0-2.06-.67-2-2a2.34,2.34,0,0,1,2.18-2.38l2.66-.38q2.46-8.55,5.51-16.44t6.08-14a48,48,0,0,0-8.55,3.61A47.29,47.29,0,0,0,422.17,23a23.61,23.61,0,0,0-4.37,4.37A8.26,8.26,0,0,0,416.09,31c0,.38.32.63,1,.76a1.81,1.81,0,0,1,1.52,1.9c0,1-.51,1.39-1.52,1.14-2.66-.25-3.87-1.77-3.61-4.56a11.74,11.74,0,0,1,2.66-5.89A28,28,0,0,1,421.88,19,46.34,46.34,0,0,1,430,14.53a71.17,71.17,0,0,1,9.31-3.32l1.14-1.9a3,3,0,0,1,2.66-1.14c1.39,0,1.84.64,1.33,1.9A43.49,43.49,0,0,1,453,9.31h2a10.75,10.75,0,0,1,2,.19q9.49,1.14,12.92,5.7a10.24,10.24,0,0,1,1.33,10.26q-2.1,5.7-9.31,11.3T443.07,45.6c2.78.64,5.6,1.42,8.46,2.37a28.54,28.54,0,0,1,7.5,3.71q5.5,3.81,6.08,7.79a10.72,10.72,0,0,1-2.19,7.88,28.1,28.1,0,0,1-8.17,7.32,71.59,71.59,0,0,1-11.87,6,89.25,89.25,0,0,1-13.21,4.09,55.61,55.61,0,0,1-12.06,1.52,19,19,0,0,1-8.93-1.81,5.6,5.6,0,0,1-3-6q.38-4.38,4.94-7.79A53.62,53.62,0,0,1,421.22,64.6Zm3.8,8.74c0,.25-.22.57-.66,1a2.43,2.43,0,0,1-1.62.57c-.64,0-1.17-.41-1.62-1.24s-.6-2.37-.47-4.65A49.6,49.6,0,0,0,413,73.24c-2.09,1.46-3.21,2.76-3.33,3.9q-.19,3.23,6.84,3.23a51.44,51.44,0,0,0,9.88-1.14,100.68,100.68,0,0,0,11.49-3,80.56,80.56,0,0,0,10.93-4.47,34.52,34.52,0,0,0,8.17-5.41,9,9,0,0,0,3.23-5.89c.12-2-1.21-4-4-5.89a33.82,33.82,0,0,0-10.16-4,54.42,54.42,0,0,0-13.4-1.71h-1.9a10.12,10.12,0,0,0-1.9.19c-.38,1.4-.79,2.79-1.24,4.18a34,34,0,0,0-1,4.18q-.19.76-.66,2.28a29.73,29.73,0,0,0-.86,3.61,51.68,51.68,0,0,1,15.58-2.66,20.65,20.65,0,0,1,6.36.85,5.58,5.58,0,0,1,3.52,2.95q.94,2.28-1.14,2.28a4.14,4.14,0,0,1-1.9-1l-1.42-1a8.18,8.18,0,0,0-2.76-.85,51.57,51.57,0,0,0-19.19,3.61,30.76,30.76,0,0,0-.57,4.94C424.51,72.39,425,72.7,425,73.34Zm5.51-29.07a87.73,87.73,0,0,0,21.18-7.79q9.23-4.93,13.5-9.88t2.66-8.84q-1.62-3.89-11.31-4.84a13.49,13.49,0,0,0-2.28-.19H452a39.9,39.9,0,0,0-4.94.28c-1.52.19-3,.42-4.37.67q-2.85,6.09-6.08,14.06T430.53,44.27Z"/><path d="M504.25,48.83l-4.94,6.84q-2.47,3.42-4.65,6.17a32.49,32.49,0,0,1-4.19,4.47,5.9,5.9,0,0,1-3.7,1.71,5.61,5.61,0,0,1-4.18-1.52,8.59,8.59,0,0,1-2.18-3.8,18.06,18.06,0,0,1-.67-5.13,34.23,34.23,0,0,1,.38-5.32,27.89,27.89,0,0,1-1.71,2.85,40.18,40.18,0,0,1-2.57,3.42,21.47,21.47,0,0,1-2.94,2.94,4.82,4.82,0,0,1-3,1.24q-2.85,0-2.85-3.23a19.54,19.54,0,0,1,1.14-6.08A37.13,37.13,0,0,1,471,46.93a25.87,25.87,0,0,1,3.71-5.13c1.33-1.39,2.56-2.09,3.7-2.09a2.65,2.65,0,0,1,2,.95,5.86,5.86,0,0,1,1.23,2.47,25.44,25.44,0,0,1,2.47-4.37,2,2,0,0,1,1.71-.76,3.23,3.23,0,0,1,1.71.47,1.6,1.6,0,0,1,.76,1.43,20.8,20.8,0,0,1-.48,2.56q-.46,2.19-1.14,5.13t-1.13,6.27a42.43,42.43,0,0,0-.48,6q0,4.56,1.71,4.56,1.14,0,2.85-1.71c1.14-1.14,2.4-2.57,3.8-4.28s2.82-3.57,4.27-5.6a58.68,58.68,0,0,1,4.47-5.51,1.66,1.66,0,0,1,1.33-.76,1.08,1.08,0,0,1,1.05.85A1.32,1.32,0,0,1,504.25,48.83ZM470.81,58.9a35.89,35.89,0,0,0,3.8-4.85q2.28-3.31,5.51-8.45a1.12,1.12,0,0,1-.76-.76,5.17,5.17,0,0,0-.19-1.52,8.88,8.88,0,0,0-.38-1A11.78,11.78,0,0,0,476.6,45q-1.23,1.9-2.47,4.18a32.29,32.29,0,0,0-3.32,9.69Z"/><path d="M534.27,36.29c-.13.89-.38,2.22-.76,4s-.79,3.68-1.24,5.7-.82,4.06-1.14,6.08-.6,3.74-.85,5.13c.76-1.26,1.58-2.63,2.47-4.09a46.59,46.59,0,0,1,2.85-4.18,45.59,45.59,0,0,1,2.94-3.51,5,5,0,0,1,2.76-1.71,4.47,4.47,0,0,1,4.56,3.42,30.53,30.53,0,0,1,.85,3.61c.32,1.65.7,3.32,1.14,5a22.1,22.1,0,0,0,1.71,4.56c.7,1.33,1.49,2,2.38,2a4.71,4.71,0,0,0,2.66-1.14,27.13,27.13,0,0,0,3.32-3c1.21-1.26,2.44-2.69,3.71-4.28s2.47-3.13,3.61-4.65,2-2.28,3-2.28a.89.89,0,0,1,1,.66,2.12,2.12,0,0,1-.38,1.62q-1.9,2.85-4.09,5.7A59.58,59.58,0,0,1,560.39,60a31.91,31.91,0,0,1-4.27,3.8,7.13,7.13,0,0,1-4.18,1.52,6.51,6.51,0,0,1-5.42-2.57,19.07,19.07,0,0,1-3-5.7,32.24,32.24,0,0,1-1.42-6.17,16.11,16.11,0,0,0-.76-3.8,43.73,43.73,0,0,0-5.89,7.5,58.78,58.78,0,0,0-6.46,14,1.65,1.65,0,0,1,.95,1.71c0,1-.57,1.52-1.71,1.52a2.37,2.37,0,0,1-1.71-.76,5.47,5.47,0,0,1-1.14-2.85,11.15,11.15,0,0,1,0-3c.12-1.52.31-3.33.57-5.42s.57-4.43,1-7,.82-5.22,1.33-7.88q-2.28,3.24-5,6.46a79.21,79.21,0,0,1-5.51,5.89,28.6,28.6,0,0,1-5.51,4.27,10.62,10.62,0,0,1-5.41,1.62q-7,0-7-8.74a24.34,24.34,0,0,1,.85-6,27.53,27.53,0,0,1,2.38-6.17,18.93,18.93,0,0,1,3.61-4.85,6.47,6.47,0,0,1,4.56-2c1.64,0,2.82,1,3.51,3a13.79,13.79,0,0,1,.1,7.41c0,.38-.32.57-1,.57a2.48,2.48,0,0,1-1.24-.38c-.44-.25-.6-.57-.47-.95a6,6,0,0,0,.19-1.71V41a16.77,16.77,0,0,0-.1-2c-.06-.57-.22-.85-.47-.85-.51,0-1.17.64-2,1.9a27.94,27.94,0,0,0-2.37,4.75,43,43,0,0,0-1.9,6,24,24,0,0,0-.76,5.61c0,2.54.69,3.8,2.09,3.8s3.23-.76,5.13-2.28a54.17,54.17,0,0,0,6-5.7q3.13-3.42,6.27-7.51t5.8-7.88L531,32.49q1.14-4.74,2.56-9.41c.95-3.1,1.9-5.91,2.85-8.45a68.33,68.33,0,0,1,2.76-6.46,9,9,0,0,1,2.47-3.42,6.15,6.15,0,0,1,1.71-.38,2.88,2.88,0,0,1,2,.76,2.75,2.75,0,0,1,.67,2.47A38,38,0,0,1,544.43,13c-.95,2.73-2,5.61-3.23,8.65s-2.37,5.86-3.51,8.45a20.19,20.19,0,0,1-2.47,4.66Z"/></g></g></svg>